<?xml version="1.0" standalone="no"?>
<!DOCTYPE svg PUBLIC "-//W3C//DTD SVG 20010904//EN"
 "http://www.w3.org/TR/2001/REC-SVG-20010904/DTD/svg10.dtd">
<svg version="1.0" xmlns="http://www.w3.org/2000/svg"
 width="718.000000pt" height="718.000000pt" viewBox="0 0 718.000000 718.000000"
 preserveAspectRatio="xMidYMid meet">

<g transform="translate(0.000000,718.000000) scale(0.100000,-0.100000)"
fill="#000000" stroke="none">
<path d="M3204 5621 c-142 -40 -224 -133 -224 -251 0 -27 -2 -50 -4 -50 -2 0
-35 14 -73 31 -122 55 -238 48 -280 -19 -10 -15 -24 -33 -31 -41 -8 -8 -12
-24 -9 -37 2 -13 -1 -22 -7 -21 -6 1 -15 -25 -21 -59 -9 -56 -15 -66 -70 -120
-69 -68 -95 -102 -95 -123 0 -8 -5 -29 -11 -46 -9 -25 -8 -42 4 -86 26 -89
113 -160 231 -190 41 -10 64 -29 35 -29 -6 0 -39 -13 -73 -29 -33 -15 -70 -31
-80 -35 -20 -7 -15 -18 9 -22 8 -1 15 3 15 8 0 10 6 4 52 -51 10 -12 28 -21
40 -20 22 1 22 1 -2 9 -23 7 -23 8 -3 9 29 1 53 -9 53 -23 0 -13 148 -60 204
-65 5 -1 1 -10 -8 -20 -17 -19 -20 -18 -144 15 -70 19 -167 45 -217 58 -49 13
-98 27 -107 31 -17 7 -18 -56 -18 -1243 0 -988 3 -1252 13 -1259 6 -5 39 -20
72 -32 118 -44 211 -79 291 -110 44 -17 86 -31 92 -31 9 0 13 316 14 1276 3
1123 5 1278 18 1285 8 5 86 38 173 74 l158 65 405 0 c360 0 404 2 404 16 0 10
6 14 18 10 9 -3 37 -10 62 -16 105 -26 266 -73 272 -79 5 -4 8 -573 8 -1264 0
-691 4 -1257 9 -1257 11 0 443 216 459 230 19 16 18 2470 -1 2470 -8 0 -111
-41 -231 -90 -187 -78 -220 -89 -239 -79 l-22 12 25 10 c14 5 53 23 87 38 34
16 66 29 71 29 5 0 15 7 22 15 7 8 23 15 36 15 13 0 24 4 24 9 0 5 14 11 31
15 18 3 28 10 24 16 -5 8 -11 8 -20 0 -22 -18 -39 -1 -21 19 9 10 14 20 11 23
-3 3 1 8 10 12 9 3 13 2 10 -4 -8 -13 11 -13 37 1 15 8 22 8 28 -1 5 -8 15
-10 26 -5 11 4 15 9 9 11 -5 1 -36 10 -69 20 l-58 16 58 30 c112 56 161 130
150 224 -17 150 -162 279 -330 296 -22 2 -32 10 -40 33 -17 48 -66 104 -110
127 -40 21 -83 21 -188 2 -36 -6 -37 -6 -49 36 -17 58 -88 133 -156 166 -43
21 -75 29 -138 32 -98 5 -150 -16 -193 -78 -32 -46 -38 -48 -46 -15 -9 36 -72
92 -124 109 -60 21 -180 19 -258 -3z m54 -219 c-27 -5 -27 -4 -20 53 l5 50 17
-50 c16 -48 16 -50 -2 -53z m587 -32 c-8 -74 -14 -94 -35 -115 l-25 -24 1 73
c0 65 3 77 27 105 15 18 27 37 27 42 0 5 3 9 8 9 4 0 3 -40 -3 -90z m227 -165
c11 -21 8 -18 -32 30 -24 29 -24 29 -2 10 13 -11 28 -29 34 -40z m-1056 -52
c-8 -8 -36 5 -36 17 0 7 6 7 21 0 11 -7 18 -14 15 -17z m1007 -60 c-7 -2 -21
-2 -30 0 -10 3 -4 5 12 5 17 0 24 -2 18 -5z m67 -13 c8 -5 11 -10 5 -10 -5 0
-17 5 -25 10 -8 5 -10 10 -5 10 6 0 17 -5 25 -10z m91 -50 l53 -40 156 -1
c171 0 171 0 -3 -54 -100 -31 -117 -39 -111 -53 10 -25 21 -112 14 -112 -4 0
-6 -12 -5 -27 1 -16 0 -19 -2 -7 -3 15 -14 24 -36 28 -18 3 -75 16 -127 28
l-95 22 56 8 c31 4 83 16 115 27 44 14 61 16 66 8 6 -9 8 -9 8 0 0 26 -83 149
-122 181 -57 46 -30 40 33 -8z m-1077 -17 c-54 -31 -69 -46 -111 -114 -51 -81
-67 -137 -60 -209 5 -44 4 -50 -4 -30 -10 24 -6 121 7 167 5 20 -3 24 -116 61
l-123 40 115 7 c64 4 124 4 134 1 14 -4 40 9 88 44 38 28 76 50 85 50 9 0 2
-8 -15 -17z m996 -127 c0 -2 -8 -10 -17 -17 -16 -13 -17 -12 -4 4 13 16 21 21
21 13z m-1075 -150 c-16 -7 -42 -16 -57 -20 -24 -5 -28 -3 -28 14 0 18 6 20
58 19 55 -1 56 -1 27 -13z m1245 -73 c-11 -17 -11 -17 -6 0 3 10 6 24 7 30 0
9 2 9 5 0 3 -7 0 -20 -6 -30z m330 -113 c0 -5 -5 -10 -11 -10 -5 0 -7 5 -4 10
3 6 8 10 11 10 2 0 4 -4 4 -10z m-1771 -1467 c-1 -38 -3 -60 -6 -50 -2 9 -11
17 -19 17 -8 0 -14 4 -14 9 0 6 -16 7 -35 4 -19 -3 -109 -2 -200 2 l-165 7 0
29 0 29 215 0 c137 0 215 4 215 10 0 6 2 10 5 10 3 0 4 -30 4 -67z"/>
<path d="M4272 4820 c0 -14 2 -19 5 -12 2 6 2 18 0 25 -3 6 -5 1 -5 -13z"/>
<path d="M2460 4480 c0 -6 7 -10 15 -10 8 0 15 2 15 4 0 2 -7 6 -15 10 -8 3
-15 1 -15 -4z"/>
</g>
</svg>
